<?xml version="1.0" encoding="utf-8"?>
<!-- Generator: Adobe Illustrator 16.0.0, SVG Export Plug-In . SVG Version: 6.00 Build 0)  -->
<!DOCTYPE svg PUBLIC "-//W3C//DTD SVG 1.1//EN" "http://www.w3.org/Graphics/SVG/1.1/DTD/svg11.dtd">
<svg version="1.1" id="Layer_1" xmlns="http://www.w3.org/2000/svg" xmlns:xlink="http://www.w3.org/1999/xlink" x="0px" y="0px"
	 width="50px" height="50px" viewBox="0 0 32 32" enable-background="new 0 0 50 50" xml:space="preserve">
<path d="M16 2.8c-5.8 0-10.4 4.8-10.4 10.6s10.4 17.4 10.4 17.4 10.4-11.4 10.4-17.4-4.6-10.6-10.4-10.6v0zM16 16.2c-2.2 0-4-1.8-4-4s1.8-4 4-4 4 1.8 4 4-1.8 4-4 4v0z"></path>
<path d="M2 25.4v0c-0.6-0.6-0.6-1.6 0-2l25.2-23.2c0.6-0.4 1.4-0.4 1.8 0l0.2 0.2c0.4 0.6 0.4 1.4 0 1.8l-25.2 23.2c-0.8 0.6-1.6 0.6-2 0z"></path>
</svg>
